<?xml version="1.0" encoding="utf-8"?>
<svg xmlns="http://www.w3.org/2000/svg" xmlns:xlink="http://www.w3.org/1999/xlink" style="margin: auto; background: none; display: block; --darkreader-inline-bgimage: initial; --darkreader-inline-bgcolor:#1f2223; shape-rendering: auto;" width="201px" height="201px" viewBox="0 0 100 100" preserveAspectRatio="xMidYMid" data-darkreader-inline-bgimage="" data-darkreader-inline-bgcolor="">
<g transform="translate(50 50)">
<g>
<animateTransform attributeName="transform" type="rotate" values="0;72" keyTimes="0;1" dur="0.1893939393939394s" repeatCount="indefinite"></animateTransform><path d="M22.9128784747792 -10 L39.9128784747792 -10 L39.9128784747792 10 L22.9128784747792 10 A25 25 0 0 1 16.591034001706234 18.701272436768242 L16.591034001706234 18.701272436768242 L21.84432290608034 34.86923321378585 L2.823192580177269 41.0495731012848 L-2.4300963241968376 24.88161232426719 A25 25 0 0 1 -12.659055553219567 21.55802199879434 L-12.659055553219567 21.55802199879434 L-26.412344457593672 31.55037128776639 L-38.16804950344313 15.370031400267449 L-24.414760599069027 5.377682111295401 A25 25 0 0 1 -24.41476059906903 -5.377682111295395 L-24.41476059906903 -5.377682111295395 L-38.16804950344314 -15.37003140026744 L-26.412344457593683 -31.55037128776638 L-12.659055553219572 -21.558021998794338 A25 25 0 0 1 -2.430096324196838 -24.88161232426719 L-2.430096324196838 -24.88161232426719 L2.823192580177265 -41.04957310128481 L21.84432290608033 -34.86923321378586 L16.591034001706227 -18.70127243676825 A25 25 0 0 1 22.9128784747792 -10.000000000000002 M0 -45A45 45 0 1 0 0 45 A45 45 0 1 0 0 -45" fill="#000000" data-darkreader-inline-fill="" style="--darkreader-inline-fill:#000000;"></path></g></g>
</svg>