<?xml version="1.0" encoding="utf-8"?>
<svg xmlns="http://www.w3.org/2000/svg" xmlns:xlink="http://www.w3.org/1999/xlink" style="margin: auto; background: none; display: block; shape-rendering: auto;" width="374px" height="374px" viewBox="0 0 100 100" preserveAspectRatio="xMidYMid">
<g transform="rotate(0 50 50)">
  <rect x="47.5" y="27.5" rx="2.5" ry="2.5" width="5" height="5" fill="#000000">
    <animate attributeName="opacity" values="1;0" keyTimes="0;1" dur="0.6896551724137931s" begin="-0.632183908045977s" repeatCount="indefinite"></animate>
  </rect>
</g><g transform="rotate(30 50 50)">
  <rect x="47.5" y="27.5" rx="2.5" ry="2.5" width="5" height="5" fill="#000000">
    <animate attributeName="opacity" values="1;0" keyTimes="0;1" dur="0.6896551724137931s" begin="-0.574712643678161s" repeatCount="indefinite"></animate>
  </rect>
</g><g transform="rotate(60 50 50)">
  <rect x="47.5" y="27.5" rx="2.5" ry="2.5" width="5" height="5" fill="#000000">
    <animate attributeName="opacity" values="1;0" keyTimes="0;1" dur="0.6896551724137931s" begin="-0.5172413793103449s" repeatCount="indefinite"></animate>
  </rect>
</g><g transform="rotate(90 50 50)">
  <rect x="47.5" y="27.5" rx="2.5" ry="2.5" width="5" height="5" fill="#000000">
    <animate attributeName="opacity" values="1;0" keyTimes="0;1" dur="0.6896551724137931s" begin="-0.4597701149425288s" repeatCount="indefinite"></animate>
  </rect>
</g><g transform="rotate(120 50 50)">
  <rect x="47.5" y="27.5" rx="2.5" ry="2.5" width="5" height="5" fill="#000000">
    <animate attributeName="opacity" values="1;0" keyTimes="0;1" dur="0.6896551724137931s" begin="-0.40229885057471265s" repeatCount="indefinite"></animate>
  </rect>
</g><g transform="rotate(150 50 50)">
  <rect x="47.5" y="27.5" rx="2.5" ry="2.5" width="5" height="5" fill="#000000">
    <animate attributeName="opacity" values="1;0" keyTimes="0;1" dur="0.6896551724137931s" begin="-0.3448275862068966s" repeatCount="indefinite"></animate>
  </rect>
</g><g transform="rotate(180 50 50)">
  <rect x="47.5" y="27.5" rx="2.5" ry="2.5" width="5" height="5" fill="#000000">
    <animate attributeName="opacity" values="1;0" keyTimes="0;1" dur="0.6896551724137931s" begin="-0.2873563218390805s" repeatCount="indefinite"></animate>
  </rect>
</g><g transform="rotate(210 50 50)">
  <rect x="47.5" y="27.5" rx="2.5" ry="2.5" width="5" height="5" fill="#000000">
    <animate attributeName="opacity" values="1;0" keyTimes="0;1" dur="0.6896551724137931s" begin="-0.2298850574712644s" repeatCount="indefinite"></animate>
  </rect>
</g><g transform="rotate(240 50 50)">
  <rect x="47.5" y="27.5" rx="2.5" ry="2.5" width="5" height="5" fill="#000000">
    <animate attributeName="opacity" values="1;0" keyTimes="0;1" dur="0.6896551724137931s" begin="-0.1724137931034483s" repeatCount="indefinite"></animate>
  </rect>
</g><g transform="rotate(270 50 50)">
  <rect x="47.5" y="27.5" rx="2.5" ry="2.5" width="5" height="5" fill="#000000">
    <animate attributeName="opacity" values="1;0" keyTimes="0;1" dur="0.6896551724137931s" begin="-0.1149425287356322s" repeatCount="indefinite"></animate>
  </rect>
</g><g transform="rotate(300 50 50)">
  <rect x="47.5" y="27.5" rx="2.5" ry="2.5" width="5" height="5" fill="#000000">
    <animate attributeName="opacity" values="1;0" keyTimes="0;1" dur="0.6896551724137931s" begin="-0.0574712643678161s" repeatCount="indefinite"></animate>
  </rect>
</g><g transform="rotate(330 50 50)">
  <rect x="47.5" y="27.5" rx="2.5" ry="2.5" width="5" height="5" fill="#000000">
    <animate attributeName="opacity" values="1;0" keyTimes="0;1" dur="0.6896551724137931s" begin="0s" repeatCount="indefinite"></animate>
  </rect>
</g>
<!-- [ldio] generated by https://loading.io/ --></svg>